<?xml version="1.0" encoding="utf-8"?><svg xmlns="http://www.w3.org/2000/svg" height="400" viewBox="-4.8 -4.8 409.6 409.6" width="400" xmlns:openbadges="http://openbadges.org"><openbadges:assertion verify="https://api.badgr.io/public/assertions/Wd-6cEgbQ2qz6bO0jKPFtg"><![CDATA[{
  "@context": "https://w3id.org/openbadges/v2",
  "type": "Assertion",
  "id": "https://api.badgr.io/public/assertions/Wd-6cEgbQ2qz6bO0jKPFtg",
  "badge": "https://api.badgr.io/public/badges/fIKRM2KuRJC2ltTC9UFlSw",
  "image": "https://api.badgr.io/public/assertions/Wd-6cEgbQ2qz6bO0jKPFtg/image",
  "verification": {
    "type": "HostedBadge"
  },
  "issuedOn": "2022-07-08T04:00:00+00:00",
  "recipient": {
    "hashed": true,
    "type": "email",
    "identity": "sha256$329cc5e65e4c6d5c6f79df5405e79c444f1087e5502a48aaaa65a01944d30e77",
    "salt": "d86120d32cb449af9155ae5cb81a39f6"
  },
  "extensions:recipientProfile": {
    "@context": "https://openbadgespec.org/extensions/recipientProfile/context.json",
    "type": [
      "Extension",
      "extensions:RecipientProfile"
    ],
    "name": "Yuxi Zhang"
  }
}]]></openbadges:assertion><linearGradient gradientUnits="userSpaceOnUse" id="gradient-3413503425" x1="5.857864376269051" x2="34.14213562373095" y1="5.857864376269049" y2="34.14213562373095"><stop offset="20%" stop-color="hsl(211.46,79.14%,33.58%)"/><stop offset="50%" stop-color="hsl(206.57,79.74%,47.16%)"/><stop offset="80%" stop-color="hsl(211.46,79.14%,33.58%)"/></linearGradient><linearGradient gradientUnits="userSpaceOnUse" id="gradient-3357778686" x1="5.857864376269051" x2="34.14213562373095" y1="5.857864376269049" y2="34.14213562373095"><stop offset="0%" stop-color="hsl(34.12,6.24%,57.25%)"/><stop offset="50%" stop-color="hsl(4.71,3.93%,35.92%)"/><stop offset="5.01%" stop-color="hsl(329.71,16.67%,3.76%)"/><stop offset="100%" stop-color="hsl(164.71,11.11%,2.82%)"/></linearGradient><linearGradient gradientUnits="userSpaceOnUse" id="gradient-876418652" x1="5.857864376269051" x2="34.14213562373095" y1="5.857864376269049" y2="34.14213562373095"><stop offset="0%" stop-color="hsl(209.41,96.79%,63.51%)"/><stop offset="10%" stop-color="hsl(211.91,88.1%,60.6%)"/><stop offset="25%" stop-color="hsl(215.29,76.16%,55.76%)"/><stop offset="37%" stop-color="hsl(215.62,80.95%,56.93%)"/><stop offset="50%" stop-color="hsl(215.92,86.02%,58.1%)"/><stop offset="5.01%" stop-color="hsl(215.21,78.34%,53.12%)"/><stop offset="83%" stop-color="hsl(204.51,90.12%,60.46%)"/><stop offset="100%" stop-color="hsl(194.35,97.82%,64.09%)"/></linearGradient><linearGradient gradientUnits="userSpaceOnUse" id="gradient-3261858847" x1="5.857864376269051" x2="34.14213562373095" y1="5.857864376269049" y2="34.14213562373095"><stop offset="0%" stop-color="hsl(0,0%,99.06%)"/><stop offset="10%" stop-color="hsl(0,0%,96.24%)"/><stop offset="25%" stop-color="hsl(0,0%,91.53%)"/><stop offset="37%" stop-color="hsl(0,0%,93.41%)"/><stop offset="50%" stop-color="hsl(0,0%,95.29%)"/><stop offset="5.01%" stop-color="hsl(0,0%,91.84%)"/><stop offset="83%" stop-color="hsl(0,0%,96.86%)"/><stop offset="100%" stop-color="hsl(0,0%,99.37%)"/></linearGradient><linearGradient gradientUnits="userSpaceOnUse" id="gradient-1211956941" x1="3.5147186257614305" x2="20.48528137423857" y1="3.5147186257614287" y2="20.485281374238568"><stop offset="0%" stop-color="hsl(194.4,96.15%,20.39%)"/><stop offset="100%" stop-color="hsl(194.4,96.15%,20.39%)"/></linearGradient><linearGradient gradientUnits="userSpaceOnUse" id="gradient-1712531199" x1="3.5147186257614305" x2="20.48528137423857" y1="3.5147186257614287" y2="20.485281374238568"><stop offset="0%" stop-color="hsl(0,0%,100%)"/><stop offset="100%" stop-color="hsl(0,0%,100%)"/></linearGradient><metadata>{&quot;content&quot;:{&quot;iconName&quot;:&quot;human-greeting-proximity&quot;,&quot;shapeName&quot;:&quot;hex&quot;},&quot;style&quot;:{&quot;iconFillStyle&quot;:{&quot;gradientDef&quot;:&quot;FF0000+0,FF0000+100&quot;,&quot;baseColor&quot;:&quot;hsl(195,33.33%,15%)&quot;,&quot;options&quot;:{&quot;angle&quot;:135,&quot;type&quot;:&quot;linear&quot;},&quot;strokeWidth&quot;:1,&quot;gradientZoom&quot;:1},&quot;iconScale&quot;:1,&quot;iconStrokeStyle&quot;:{&quot;baseColor&quot;:&quot;hsl(0,0%,50%)&quot;,&quot;gradientDef&quot;:&quot;FF0000+0,FF0000+100&quot;,&quot;gradientZoom&quot;:1,&quot;options&quot;:{&quot;angle&quot;:135,&quot;type&quot;:&quot;linear&quot;},&quot;strokeWidth&quot;:5},&quot;shapeInnerFillStyle&quot;:{&quot;gradientDef&quot;:&quot;https://colorzilla.com/gradient-editor/#b8e1fc+0,a9d2f3+10,90bae4+25,90bcea+37,90bff0+50,6ba8e5+5.01,a2daf5+83,bdf3fd+100&quot;,&quot;baseColor&quot;:&quot;hsl(210,66.67%,30%)&quot;,&quot;options&quot;:{&quot;angle&quot;:135,&quot;type&quot;:&quot;linear&quot;},&quot;strokeWidth&quot;:1,&quot;gradientZoom&quot;:1},&quot;shapeInnerStrokeStyle&quot;:{&quot;baseColor&quot;:&quot;hsl(0,0%,60%)&quot;,&quot;gradientDef&quot;:&quot;https://colorzilla.com/gradient-editor/#b8e1fc+0,a9d2f3+10,90bae4+25,90bcea+37,90bff0+50,6ba8e5+5.01,a2daf5+83,bdf3fd+100&quot;,&quot;gradientZoom&quot;:1,&quot;options&quot;:{&quot;angle&quot;:135,&quot;type&quot;:&quot;linear&quot;},&quot;strokeWidth&quot;:0.4},&quot;shapeOuterFillStyle&quot;:{&quot;gradientDef&quot;:&quot;https://colorzilla.com/gradient-editor/#1e5799+20,2989d8+50,1e5799+80&quot;,&quot;baseColor&quot;:&quot;hsl(210,53.85%,32.5%)&quot;,&quot;options&quot;:{&quot;angle&quot;:135,&quot;type&quot;:&quot;linear&quot;},&quot;strokeWidth&quot;:1,&quot;gradientZoom&quot;:1},&quot;shapeOuterStrokeStyle&quot;:{&quot;baseColor&quot;:&quot;rgb(102,89,51)&quot;,&quot;gradientDef&quot;:&quot;https://colorzilla.com/gradient-editor/#aebcbf+0,6e7774+50,0a0e0a+5.01,0a0809+100&quot;,&quot;gradientZoom&quot;:1,&quot;options&quot;:{&quot;angle&quot;:135,&quot;type&quot;:&quot;linear&quot;},&quot;strokeWidth&quot;:0.6}}}</metadata><svg height="400" style="overflow: visible;" viewBox="0 0 40 40" width="400" x="0" y="0"><path d="M35 30.4l-13.6 7.8c-.9.5-2.1.5-3 0L4.9 30.4c-.9-.5-1.5-1.5-1.5-2.6V12.1c0-1.1.6-2.1 1.5-2.6l13.6-7.8c.9-.5 2.1-.5 3 0L35 9.5c.9.5 1.5 1.5 1.5 2.6v15.7c.1 1.1-.5 2.1-1.5 2.6z" fill="#9fa0a4" style="fill: url(&quot;#gradient-3413503425&quot;); stroke-width: 0.96px; stroke: url(&quot;#gradient-3357778686&quot;); stroke-linecap: round; stroke-linejoin: round;"/><path d="M20 5.5c-.5 0-.9.1-1.3.3L8.3 11.7C7.5 12.2 7 13 7 14v12c0 .9.5 1.8 1.3 2.3l10.4 6c.8.5 1.8.5 2.6 0l10.4-6c.8-.5 1.3-1.3 1.3-2.3V14c0-1-.5-1.8-1.4-2.3l-10.4-6c-.4-.2-.8-.3-1.2-.2z" fill="none" stroke="#fff" stroke-miterlimit="10" style="fill: url(&quot;#gradient-876418652&quot;); stroke-width: 0.64px; stroke: url(&quot;#gradient-3261858847&quot;); stroke-linecap: round; stroke-linejoin: round;"/></svg><svg height="150" id="mdi-human-greeting-proximity" style="overflow: visible;" version="1.1" viewBox="0 0 24 24" width="150" x="125" y="125"><path d="M 11 14 H 9 C 9 9.03 13.03 5 18 5 V 7 C 14.13 7 11 10.13 11 14 Z M 18 11 V 9 C 15.24 9 13 11.24 13 14 H 15 C 15 12.34 16.34 11 18 11 Z M 7 4 C 7 2.89 6.11 2 5 2 S 3 2.89 3 4 S 3.89 6 5 6 S 7 5.11 7 4 Z M 11.45 4.5 H 9.45 C 9.21 5.92 8 7 6.5 7 H 3.5 C 2.67 7 2 7.67 2 8.5 V 11 H 8 V 8.74 C 9.86 8.15 11.25 6.5 11.45 4.5 Z M 19 17 C 20.11 17 21 16.11 21 15 S 20.11 13 19 13 S 17 13.89 17 15 S 17.89 17 19 17 Z M 20.5 18 H 17.5 C 16 18 14.79 16.92 14.55 15.5 H 12.55 C 12.75 17.5 14.14 19.15 16 19.74 V 22 H 22 V 19.5 C 22 18.67 21.33 18 20.5 18 Z" style="fill: url(&quot;#gradient-1211956941&quot;); stroke-width: 4.8px; stroke: url(&quot;#gradient-1712531199&quot;); stroke-linecap: round; stroke-linejoin: round;"/><path d="M 11 14 H 9 C 9 9.03 13.03 5 18 5 V 7 C 14.13 7 11 10.13 11 14 Z M 18 11 V 9 C 15.24 9 13 11.24 13 14 H 15 C 15 12.34 16.34 11 18 11 Z M 7 4 C 7 2.89 6.11 2 5 2 S 3 2.89 3 4 S 3.89 6 5 6 S 7 5.11 7 4 Z M 11.45 4.5 H 9.45 C 9.21 5.92 8 7 6.5 7 H 3.5 C 2.67 7 2 7.67 2 8.5 V 11 H 8 V 8.74 C 9.86 8.15 11.25 6.5 11.45 4.5 Z M 19 17 C 20.11 17 21 16.11 21 15 S 20.11 13 19 13 S 17 13.89 17 15 S 17.89 17 19 17 Z M 20.5 18 H 17.5 C 16 18 14.79 16.92 14.55 15.5 H 12.55 C 12.75 17.5 14.14 19.15 16 19.74 V 22 H 22 V 19.5 C 22 18.67 21.33 18 20.5 18 Z" style="fill: url(&quot;#gradient-1211956941&quot;);"/></svg></svg>